<svg id="svg" version="1.1" xmlns="http://www.w3.org/2000/svg" xmlns:xlink="http://www.w3.org/1999/xlink" width="400" height="400" viewBox="0, 0, 400,400"><g id="svgg"><path id="path0" d="M0.000 200.000 L 0.000 400.000 200.000 400.000 L 400.000 400.000 400.000 200.000 L 400.000 0.000 200.000 0.000 L 0.000 0.000 0.000 200.000 M340.328 42.329 C 340.839 42.620,342.274 43.123,343.517 43.447 C 344.760 43.771,346.052 44.284,346.388 44.587 C 346.725 44.890,347.540 45.266,348.200 45.422 C 350.007 45.851,354.443 48.047,354.664 48.623 C 354.771 48.900,355.265 49.230,355.763 49.355 C 356.654 49.579,358.742 51.060,360.907 53.005 C 361.516 53.552,362.191 54.000,362.407 54.000 C 362.623 54.000,362.800 54.270,362.800 54.600 C 362.800 54.930,362.965 55.200,363.166 55.200 C 363.710 55.200,366.800 58.174,366.800 58.696 C 366.800 58.944,367.160 59.260,367.600 59.400 C 368.040 59.540,368.400 59.797,368.400 59.972 C 368.400 60.147,368.895 60.939,369.500 61.731 C 372.733 65.967,373.381 66.927,374.201 68.687 C 374.530 69.395,374.800 70.250,374.800 70.587 C 374.800 70.924,374.975 71.200,375.190 71.200 C 375.669 71.200,376.800 73.319,376.800 74.217 C 376.800 74.578,377.148 75.316,377.574 75.858 C 378.020 76.425,378.455 77.806,378.602 79.121 C 378.743 80.374,379.249 82.300,379.729 83.400 L 380.600 85.400 380.715 165.600 C 380.829 245.365,380.729 252.616,379.488 254.532 C 379.179 255.009,378.806 256.570,378.661 258.000 C 378.510 259.482,378.087 261.030,377.678 261.600 C 377.284 262.150,376.734 263.375,376.458 264.321 C 376.181 265.268,375.695 266.142,375.378 266.264 C 375.060 266.386,374.800 266.730,374.800 267.029 C 374.800 267.809,373.513 270.400,373.126 270.400 C 372.947 270.400,372.800 270.679,372.800 271.019 C 372.800 271.360,372.392 272.035,371.894 272.519 C 371.396 273.004,370.743 273.882,370.443 274.470 C 370.142 275.059,369.065 276.451,368.048 277.563 C 367.032 278.676,366.002 279.815,365.761 280.093 C 365.367 280.548,363.791 281.963,359.628 285.601 C 358.873 286.260,357.972 286.800,357.624 286.800 C 357.277 286.800,356.768 287.160,356.493 287.600 C 356.218 288.040,355.749 288.400,355.452 288.400 C 355.154 288.400,354.231 288.940,353.400 289.600 C 352.569 290.260,351.655 290.800,351.368 290.800 C 351.081 290.800,350.250 291.147,349.523 291.571 C 348.795 291.995,347.480 292.473,346.600 292.633 C 345.720 292.794,344.550 293.256,344.000 293.660 C 343.450 294.063,342.100 294.510,341.000 294.653 C 339.900 294.796,338.460 295.202,337.800 295.556 C 336.759 296.115,333.973 296.226,316.733 296.400 C 305.806 296.510,296.716 296.750,296.533 296.933 C 296.350 297.116,296.101 309.176,295.980 323.733 C 295.731 353.585,295.843 352.523,292.535 356.320 C 290.519 358.633,286.383 359.385,280.279 358.549 C 278.420 358.294,271.600 352.585,271.600 351.284 C 271.600 351.018,271.412 350.800,271.183 350.800 C 270.610 350.800,261.600 341.830,261.600 341.259 C 261.600 341.007,261.426 340.800,261.214 340.800 C 260.613 340.800,257.600 337.896,257.600 337.316 C 257.600 337.032,257.412 336.800,257.183 336.800 C 256.621 336.800,247.600 327.803,247.600 327.242 C 247.600 326.999,247.414 326.800,247.187 326.800 C 246.637 326.800,237.600 317.779,237.600 317.230 C 237.600 316.993,237.426 316.800,237.214 316.800 C 236.613 316.800,233.600 313.896,233.600 313.316 C 233.600 313.032,233.409 312.800,233.177 312.800 C 232.627 312.800,223.600 303.769,223.600 303.219 C 223.600 302.989,223.426 302.800,223.214 302.800 C 222.613 302.800,219.600 299.896,219.600 299.316 C 219.600 299.032,219.411 298.800,219.181 298.800 C 218.950 298.800,218.303 298.305,217.742 297.700 L 216.723 296.600 140.062 296.400 C 70.606 296.219,63.287 296.139,62.200 295.556 C 61.540 295.202,60.100 294.796,59.000 294.653 C 57.900 294.510,56.550 294.063,56.000 293.660 C 55.450 293.256,54.280 292.794,53.400 292.633 C 52.520 292.473,51.205 291.995,50.477 291.571 C 49.750 291.147,48.919 290.800,48.632 290.800 C 48.345 290.800,47.431 290.260,46.600 289.600 C 45.769 288.940,44.846 288.400,44.548 288.400 C 44.251 288.400,43.782 288.040,43.507 287.600 C 43.232 287.160,42.769 286.800,42.477 286.800 C 41.239 286.800,32.400 278.489,30.291 275.343 C 29.533 274.212,28.704 273.042,28.449 272.743 C 27.341 271.445,25.614 268.548,25.607 267.978 C 25.603 267.635,25.150 266.745,24.600 266.000 C 24.050 265.255,23.600 264.488,23.600 264.298 C 23.600 264.107,23.160 263.017,22.623 261.875 C 22.086 260.734,21.521 258.810,21.369 257.600 C 21.216 256.390,20.801 254.860,20.446 254.200 C 19.319 252.107,19.254 87.254,20.378 83.600 C 20.818 82.170,21.362 79.935,21.588 78.633 C 21.813 77.331,22.251 75.981,22.562 75.633 C 22.872 75.285,23.332 74.226,23.584 73.279 C 23.836 72.333,24.302 71.459,24.621 71.337 C 24.939 71.214,25.200 70.882,25.200 70.598 C 25.200 69.270,29.426 62.670,32.241 59.600 C 33.746 57.958,36.290 55.464,37.483 54.459 C 38.097 53.941,39.381 52.836,40.336 52.003 C 41.290 51.169,42.730 50.153,43.536 49.744 C 44.341 49.335,45.131 48.799,45.291 48.552 C 45.450 48.306,46.170 47.872,46.891 47.587 C 47.611 47.301,48.470 46.845,48.800 46.571 C 49.130 46.298,50.194 45.863,51.164 45.605 C 52.134 45.346,53.338 44.866,53.839 44.538 C 54.340 44.209,55.706 43.667,56.875 43.332 C 58.044 42.997,59.810 42.481,60.800 42.186 C 63.458 41.395,338.937 41.536,340.328 42.329 M259.886 106.660 C 259.494 106.772,258.746 107.255,258.224 107.732 C 257.703 108.209,257.034 108.823,256.738 109.095 C 253.905 111.702,254.000 109.833,254.000 162.704 L 254.000 209.662 252.831 210.831 L 251.662 212.000 242.275 212.000 C 233.630 212.000,232.814 211.940,231.944 211.235 L 231.000 210.471 230.800 173.135 C 230.591 134.150,230.428 130.800,228.734 130.800 C 228.550 130.800,227.996 130.395,227.501 129.900 C 225.678 128.074,220.094 126.887,218.600 128.007 C 218.380 128.173,217.615 128.433,216.900 128.585 C 216.186 128.738,215.376 129.181,215.100 129.568 C 214.825 129.956,214.221 130.474,213.759 130.719 C 211.909 131.700,211.836 133.197,211.696 172.797 L 211.565 209.793 210.508 210.897 L 209.450 212.000 200.147 212.000 C 190.891 212.000,190.839 211.995,189.722 211.035 L 188.600 210.070 188.382 182.935 C 188.234 164.473,188.021 155.391,187.716 154.521 C 187.187 153.012,185.188 150.400,184.562 150.400 C 184.321 150.400,183.798 150.040,183.400 149.600 C 182.772 148.906,182.168 148.800,178.834 148.800 C 175.426 148.800,174.936 148.890,174.493 149.600 C 174.218 150.040,173.797 150.400,173.557 150.400 C 173.317 150.400,172.589 150.970,171.938 151.666 C 169.652 154.114,169.600 154.807,169.600 183.023 C 169.600 215.496,171.033 212.000,157.722 212.000 L 148.592 212.000 147.501 210.988 C 145.980 209.578,146.016 210.004,145.902 191.982 C 145.789 173.980,145.928 174.935,143.004 172.167 C 140.018 169.340,133.405 169.156,130.884 171.829 C 130.380 172.363,129.748 172.800,129.479 172.800 C 127.662 172.800,127.005 178.310,126.882 194.593 C 126.738 213.676,127.386 212.000,120.150 212.000 C 113.079 212.000,111.620 212.398,108.972 215.046 C 104.359 219.658,105.621 226.415,111.840 230.400 L 113.400 231.400 200.058 231.400 C 277.733 231.400,286.793 231.336,287.458 230.780 C 287.866 230.439,288.861 229.821,289.670 229.405 C 290.478 228.990,291.331 228.279,291.564 227.825 C 291.798 227.371,292.352 226.550,292.796 226.000 C 293.422 225.224,293.611 224.374,293.639 222.200 C 293.697 217.733,293.181 216.612,289.600 213.430 C 288.585 212.527,284.988 212.000,279.850 212.000 C 275.245 212.000,274.886 211.943,274.076 211.081 L 273.213 210.162 273.106 162.381 L 273.000 114.600 272.092 112.356 C 270.225 107.740,264.859 105.236,259.886 106.660 " stroke="none" fill="#fbfbfb" fill-rule="evenodd"></path><path id="path1" d="M66.164 43.579 C 64.605 43.972,61.933 44.425,60.227 44.585 C 57.998 44.793,56.912 45.088,56.368 45.632 C 55.952 46.048,54.897 46.503,54.024 46.643 C 53.151 46.782,52.134 47.231,51.763 47.640 C 51.393 48.050,50.448 48.505,49.663 48.652 C 48.878 48.799,47.780 49.343,47.222 49.860 C 46.664 50.377,45.911 50.800,45.547 50.800 C 45.183 50.800,44.781 51.072,44.654 51.403 C 44.527 51.735,43.929 52.230,43.326 52.503 C 42.723 52.777,41.792 53.405,41.257 53.900 C 40.721 54.395,39.969 54.800,39.585 54.800 C 39.174 54.800,38.784 55.211,38.636 55.800 C 38.498 56.350,38.139 56.800,37.838 56.800 C 37.538 56.800,36.997 57.250,36.637 57.800 C 36.276 58.350,35.716 58.800,35.391 58.800 C 35.066 58.800,34.800 59.071,34.800 59.403 C 34.800 59.734,34.350 60.397,33.800 60.875 C 33.250 61.353,32.800 61.906,32.800 62.103 C 32.800 62.300,32.260 63.002,31.600 63.662 C 30.940 64.322,30.400 65.107,30.400 65.408 C 30.400 65.709,30.069 66.190,29.665 66.477 C 29.260 66.765,28.806 67.500,28.654 68.110 C 28.503 68.721,28.024 69.576,27.590 70.010 C 27.155 70.445,26.800 71.056,26.800 71.369 C 26.800 71.682,26.377 72.447,25.860 73.069 C 25.343 73.691,24.796 75.010,24.643 76.000 C 24.491 76.990,24.039 78.520,23.640 79.400 C 23.241 80.280,22.733 82.372,22.512 84.049 C 22.291 85.726,21.815 87.688,21.455 88.410 C 20.357 90.610,20.460 247.163,21.560 249.322 C 21.978 250.141,22.449 252.115,22.607 253.706 C 22.765 255.298,23.216 257.234,23.609 258.009 C 24.002 258.785,24.454 260.284,24.612 261.341 C 24.793 262.547,25.255 263.618,25.850 264.214 C 26.373 264.736,26.800 265.504,26.800 265.920 C 26.800 266.336,27.150 266.993,27.577 267.379 C 28.005 267.766,28.478 268.649,28.630 269.341 C 28.781 270.034,29.331 270.996,29.852 271.481 C 30.374 271.965,30.800 272.640,30.800 272.981 C 30.800 273.321,31.065 273.600,31.390 273.600 C 31.714 273.600,32.238 274.095,32.554 274.700 C 33.392 276.305,37.005 279.900,42.461 284.557 C 42.824 284.867,43.454 285.228,43.861 285.358 C 44.267 285.488,45.123 286.046,45.762 286.598 C 46.401 287.149,47.156 287.600,47.440 287.600 C 47.723 287.600,48.190 287.933,48.477 288.339 C 48.765 288.746,49.720 289.209,50.600 289.369 C 51.480 289.528,52.620 289.930,53.134 290.261 C 53.648 290.593,54.998 291.137,56.134 291.471 C 57.270 291.805,58.480 292.326,58.822 292.630 C 60.198 293.853,68.739 293.993,141.940 293.997 C 210.607 294.000,215.372 294.044,216.736 294.691 C 218.247 295.408,242.800 319.601,242.800 320.373 C 242.800 320.608,242.990 320.800,243.221 320.800 C 243.748 320.800,252.800 329.884,252.800 330.413 C 252.800 330.626,252.988 330.800,253.217 330.800 C 253.751 330.800,277.200 354.266,277.200 354.800 C 277.200 355.020,277.384 355.200,277.608 355.200 C 277.832 355.200,278.729 355.650,279.600 356.200 C 281.590 357.456,287.886 357.701,288.835 356.558 C 289.127 356.205,289.783 355.759,290.291 355.566 C 290.799 355.372,291.381 354.776,291.585 354.239 C 291.789 353.703,292.281 353.083,292.678 352.861 C 293.360 352.479,293.411 350.913,293.600 324.328 C 293.710 308.858,293.932 295.997,294.094 295.749 C 295.158 294.112,296.446 294.000,314.260 293.997 C 334.221 293.993,339.293 293.667,342.168 292.202 C 343.250 291.651,344.482 291.200,344.905 291.200 C 345.328 291.200,346.113 290.855,346.649 290.433 C 347.185 290.011,348.322 289.548,349.176 289.404 C 350.030 289.260,351.043 288.795,351.426 288.371 C 351.810 287.947,352.341 287.600,352.607 287.600 C 352.873 287.600,353.769 287.060,354.600 286.400 C 355.431 285.740,356.346 285.200,356.635 285.200 C 356.924 285.200,357.304 284.971,357.480 284.690 C 357.656 284.410,358.250 283.889,358.800 283.531 C 361.257 281.936,369.600 273.119,369.600 272.118 C 369.600 271.849,369.928 271.452,370.330 271.238 C 370.731 271.023,371.276 270.124,371.541 269.240 C 371.805 268.357,372.192 267.529,372.400 267.400 C 372.607 267.272,373.132 266.364,373.566 265.383 C 374.000 264.403,374.529 263.600,374.742 263.600 C 374.955 263.600,375.257 262.835,375.413 261.900 C 375.568 260.965,376.029 259.300,376.437 258.200 C 376.845 257.100,377.364 254.884,377.591 253.276 C 377.818 251.669,378.273 249.832,378.602 249.196 C 379.637 247.194,379.492 90.581,378.452 87.800 C 378.041 86.700,377.578 84.641,377.424 83.225 C 377.270 81.809,376.881 80.144,376.561 79.525 C 376.241 78.906,375.802 77.464,375.585 76.321 C 375.368 75.177,374.853 73.872,374.441 73.421 C 374.029 72.969,373.560 72.150,373.399 71.600 C 373.237 71.050,372.864 70.323,372.568 69.985 C 372.272 69.647,371.751 68.702,371.410 67.885 C 371.069 67.068,370.634 66.400,370.443 66.400 C 370.253 66.400,369.873 65.860,369.600 65.200 C 369.327 64.540,368.959 64.000,368.784 64.000 C 368.609 64.000,368.052 63.332,367.547 62.515 C 367.042 61.698,366.308 60.708,365.915 60.315 C 365.522 59.922,365.200 59.420,365.200 59.200 C 365.200 58.980,364.999 58.800,364.753 58.800 C 364.171 58.800,361.200 55.829,361.200 55.247 C 361.200 55.001,360.871 54.800,360.470 54.800 C 360.068 54.800,359.331 54.365,358.832 53.834 C 358.333 53.302,357.496 52.760,356.974 52.629 C 356.451 52.498,355.832 52.033,355.597 51.595 C 355.363 51.158,354.922 50.800,354.617 50.800 C 354.311 50.800,353.553 50.373,352.931 49.852 C 352.309 49.330,351.170 48.771,350.400 48.609 C 349.630 48.446,348.640 47.997,348.200 47.611 C 347.760 47.224,346.779 46.790,346.019 46.648 C 345.260 46.505,344.270 46.056,343.819 45.650 C 343.239 45.129,341.828 44.776,338.990 44.445 C 336.785 44.187,334.102 43.711,333.027 43.388 C 329.710 42.390,70.144 42.576,66.164 43.579 M266.576 104.613 C 267.004 104.936,267.685 105.200,268.090 105.200 C 268.711 105.200,269.625 105.907,272.040 108.257 C 272.234 108.445,272.889 109.219,273.496 109.977 L 274.600 111.353 274.706 160.231 L 274.812 209.110 275.706 209.350 C 276.198 209.481,278.795 209.592,281.478 209.595 C 288.285 209.602,293.791 212.414,294.622 216.307 C 294.750 216.908,295.202 218.140,295.627 219.044 C 296.592 221.097,296.600 222.267,295.660 223.808 C 295.255 224.473,294.805 225.643,294.660 226.408 C 294.395 227.812,292.030 230.800,291.185 230.800 C 290.934 230.800,290.400 231.205,289.999 231.700 L 289.271 232.600 200.735 232.705 C 112.258 232.809,110.000 232.780,110.000 231.531 C 110.000 231.326,109.460 230.970,108.800 230.740 C 108.140 230.510,107.600 230.158,107.600 229.958 C 107.600 229.758,107.162 229.214,106.627 228.749 C 106.034 228.233,105.548 227.258,105.383 226.251 C 105.235 225.343,104.887 224.330,104.611 224.000 C 103.673 222.877,103.593 220.983,104.416 219.369 C 104.843 218.531,105.301 217.266,105.434 216.558 C 105.721 215.032,108.892 211.685,110.388 211.332 C 110.945 211.200,111.733 210.802,112.141 210.446 C 112.726 209.935,113.983 209.777,118.141 209.691 C 121.033 209.632,123.796 209.496,124.280 209.389 L 125.160 209.195 125.280 192.291 L 125.400 175.387 126.664 173.479 C 129.840 168.685,137.301 165.903,140.446 168.339 C 140.971 168.745,141.870 169.193,142.446 169.333 C 143.876 169.682,146.800 172.592,146.800 173.668 C 146.800 174.146,147.115 174.885,147.500 175.310 C 148.136 176.012,148.218 177.607,148.400 192.742 L 148.600 209.400 158.000 209.400 L 167.400 209.400 167.600 181.600 L 167.800 153.800 169.085 152.000 C 173.492 145.826,181.068 144.643,186.400 149.297 C 188.045 150.734,188.503 151.370,190.075 154.400 C 190.481 155.183,190.621 161.279,190.717 182.507 L 190.841 209.615 200.121 209.507 L 209.400 209.400 209.601 171.400 L 209.802 133.400 210.801 131.600 C 212.000 129.440,213.511 127.790,214.831 127.199 C 215.364 126.961,216.250 126.506,216.800 126.189 C 218.648 125.122,224.193 125.403,226.359 126.672 C 228.503 127.929,230.800 130.062,230.800 130.796 C 230.800 131.080,231.080 131.516,231.422 131.767 C 232.678 132.685,232.781 135.766,232.790 172.507 L 232.800 209.615 242.100 209.507 L 251.400 209.400 251.600 161.200 L 251.800 113.000 252.700 111.415 C 253.195 110.544,253.600 109.620,253.600 109.363 C 253.600 109.106,254.185 108.444,254.900 107.893 C 255.615 107.342,256.633 106.510,257.161 106.045 C 257.690 105.580,258.410 105.194,258.761 105.187 C 259.113 105.180,259.749 104.910,260.176 104.587 C 261.212 103.804,265.530 103.821,266.576 104.613 " stroke="none" fill="#3c8c74" fill-rule="evenodd"></path><path id="path2" d="M60.800 42.186 C 59.810 42.481,58.044 42.997,56.875 43.332 C 55.706 43.667,54.340 44.209,53.839 44.538 C 53.338 44.866,52.134 45.346,51.164 45.605 C 50.194 45.863,49.130 46.298,48.800 46.571 C 48.470 46.845,47.611 47.301,46.891 47.587 C 46.170 47.872,45.450 48.306,45.291 48.552 C 45.131 48.799,44.341 49.335,43.536 49.744 C 42.730 50.153,41.290 51.169,40.336 52.003 C 39.381 52.836,38.097 53.941,37.483 54.459 C 36.290 55.464,33.746 57.958,32.241 59.600 C 29.426 62.670,25.200 69.270,25.200 70.598 C 25.200 70.882,24.939 71.214,24.621 71.337 C 24.302 71.459,23.836 72.333,23.584 73.279 C 23.332 74.226,22.872 75.285,22.562 75.633 C 22.251 75.981,21.813 77.331,21.588 78.633 C 21.362 79.935,20.818 82.170,20.378 83.600 C 19.254 87.254,19.319 252.107,20.446 254.200 C 20.801 254.860,21.216 256.390,21.369 257.600 C 21.521 258.810,22.086 260.734,22.623 261.875 C 23.160 263.017,23.600 264.107,23.600 264.298 C 23.600 264.488,24.050 265.255,24.600 266.000 C 25.150 266.745,25.603 267.635,25.607 267.978 C 25.614 268.548,27.341 271.445,28.449 272.743 C 28.704 273.042,29.533 274.212,30.291 275.343 C 32.400 278.489,41.239 286.800,42.477 286.800 C 42.769 286.800,43.232 287.160,43.507 287.600 C 43.782 288.040,44.251 288.400,44.548 288.400 C 44.846 288.400,45.769 288.940,46.600 289.600 C 47.431 290.260,48.345 290.800,48.632 290.800 C 48.919 290.800,49.750 291.147,50.477 291.571 C 51.205 291.995,52.520 292.473,53.400 292.633 C 54.280 292.794,55.450 293.256,56.000 293.660 C 56.550 294.063,57.900 294.510,59.000 294.653 C 60.100 294.796,61.540 295.202,62.200 295.556 C 63.287 296.139,70.606 296.219,140.062 296.400 L 216.723 296.600 217.742 297.700 C 218.303 298.305,218.950 298.800,219.181 298.800 C 219.411 298.800,219.600 299.032,219.600 299.316 C 219.600 299.896,222.613 302.800,223.214 302.800 C 223.426 302.800,223.600 302.989,223.600 303.219 C 223.600 303.769,232.627 312.800,233.177 312.800 C 233.409 312.800,233.600 313.032,233.600 313.316 C 233.600 313.896,236.613 316.800,237.214 316.800 C 237.426 316.800,237.600 316.993,237.600 317.230 C 237.600 317.779,246.637 326.800,247.187 326.800 C 247.414 326.800,247.600 326.999,247.600 327.242 C 247.600 327.803,256.621 336.800,257.183 336.800 C 257.412 336.800,257.600 337.032,257.600 337.316 C 257.600 337.896,260.613 340.800,261.214 340.800 C 261.426 340.800,261.600 341.007,261.600 341.259 C 261.600 341.830,270.610 350.800,271.183 350.800 C 271.412 350.800,271.600 351.018,271.600 351.284 C 271.600 352.585,278.420 358.294,280.279 358.549 C 286.383 359.385,290.519 358.633,292.535 356.320 C 295.843 352.523,295.731 353.585,295.980 323.733 C 296.101 309.176,296.350 297.116,296.533 296.933 C 296.716 296.750,305.806 296.510,316.733 296.400 C 333.973 296.226,336.759 296.115,337.800 295.556 C 338.460 295.202,339.900 294.796,341.000 294.653 C 342.100 294.510,343.450 294.063,344.000 293.660 C 344.550 293.256,345.720 292.794,346.600 292.633 C 347.480 292.473,348.795 291.995,349.523 291.571 C 350.250 291.147,351.081 290.800,351.368 290.800 C 351.655 290.800,352.569 290.260,353.400 289.600 C 354.231 288.940,355.154 288.400,355.452 288.400 C 355.749 288.400,356.218 288.040,356.493 287.600 C 356.768 287.160,357.277 286.800,357.624 286.800 C 357.972 286.800,358.873 286.260,359.628 285.601 C 363.791 281.963,365.367 280.548,365.761 280.093 C 366.002 279.815,367.032 278.676,368.048 277.563 C 369.065 276.451,370.142 275.059,370.443 274.470 C 370.743 273.882,371.396 273.004,371.894 272.519 C 372.392 272.035,372.800 271.360,372.800 271.019 C 372.800 270.679,372.947 270.400,373.126 270.400 C 373.513 270.400,374.800 267.809,374.800 267.029 C 374.800 266.730,375.060 266.386,375.378 266.264 C 375.695 266.142,376.181 265.268,376.458 264.321 C 376.734 263.375,377.284 262.150,377.678 261.600 C 378.087 261.030,378.510 259.482,378.661 258.000 C 378.806 256.570,379.179 255.009,379.488 254.532 C 380.729 252.616,380.829 245.365,380.715 165.600 L 380.600 85.400 379.729 83.400 C 379.249 82.300,378.743 80.374,378.602 79.121 C 378.455 77.806,378.020 76.425,377.574 75.858 C 377.148 75.316,376.800 74.578,376.800 74.217 C 376.800 73.319,375.669 71.200,375.190 71.200 C 374.975 71.200,374.800 70.924,374.800 70.587 C 374.800 70.250,374.530 69.395,374.201 68.687 C 373.381 66.927,372.733 65.967,369.500 61.731 C 368.895 60.939,368.400 60.147,368.400 59.972 C 368.400 59.797,368.040 59.540,367.600 59.400 C 367.160 59.260,366.800 58.944,366.800 58.696 C 366.800 58.174,363.710 55.200,363.166 55.200 C 362.965 55.200,362.800 54.930,362.800 54.600 C 362.800 54.270,362.623 54.000,362.407 54.000 C 362.191 54.000,361.516 53.552,360.907 53.005 C 358.742 51.060,356.654 49.579,355.763 49.355 C 355.265 49.230,354.771 48.900,354.664 48.623 C 354.443 48.047,350.007 45.851,348.200 45.422 C 347.540 45.266,346.725 44.890,346.388 44.587 C 346.052 44.284,344.760 43.771,343.517 43.447 C 342.274 43.123,340.839 42.620,340.328 42.329 C 338.937 41.536,63.458 41.395,60.800 42.186 M340.200 43.117 C 341.960 43.610,344.390 44.449,345.600 44.982 C 346.810 45.514,348.880 46.420,350.200 46.995 C 351.520 47.569,353.230 48.451,354.000 48.953 C 354.770 49.456,356.469 50.572,357.776 51.434 C 363.045 54.907,370.895 63.709,373.623 69.200 C 374.333 70.630,375.128 72.070,375.390 72.400 C 376.044 73.222,377.910 78.641,378.214 80.600 C 378.351 81.480,378.854 83.460,379.331 85.000 L 380.200 87.800 380.200 168.600 C 380.200 244.669,380.159 249.529,379.495 251.600 C 379.107 252.810,378.527 255.216,378.205 256.947 C 377.884 258.677,377.460 260.297,377.263 260.547 C 377.065 260.796,376.678 261.720,376.402 262.600 C 376.125 263.480,375.681 264.470,375.414 264.800 C 375.147 265.130,374.264 266.731,373.451 268.358 C 372.638 269.985,371.531 271.875,370.990 272.558 C 370.449 273.241,369.690 274.223,369.304 274.739 C 367.497 277.150,364.724 280.155,362.525 282.084 C 359.194 285.005,358.899 285.233,356.191 286.972 C 354.876 287.817,353.350 288.805,352.800 289.169 C 352.250 289.533,350.630 290.291,349.200 290.855 C 347.770 291.419,345.610 292.285,344.400 292.780 C 338.090 295.358,334.951 295.688,315.000 295.870 C 302.765 295.982,296.712 296.178,296.100 296.485 L 295.200 296.935 295.200 322.685 C 295.200 351.645,295.163 352.098,292.517 355.189 C 290.369 357.698,289.485 358.000,284.280 358.000 C 278.395 358.000,282.043 361.130,246.801 325.840 L 217.002 296.000 144.601 295.972 C 104.780 295.956,70.670 295.792,68.800 295.607 C 63.435 295.077,58.409 294.028,56.177 292.972 C 55.047 292.437,53.896 292.000,53.619 292.000 C 49.358 292.000,36.275 281.985,30.366 274.200 C 25.187 267.377,22.885 261.846,20.379 250.200 C 19.717 247.121,19.933 89.370,20.604 86.400 C 20.927 84.970,21.462 82.450,21.793 80.800 C 22.363 77.955,23.405 75.014,24.628 72.800 C 24.931 72.250,25.556 70.993,26.016 70.006 C 30.260 60.900,41.985 49.970,51.386 46.356 C 53.154 45.677,54.784 44.970,55.009 44.787 C 55.653 44.261,61.552 42.731,64.200 42.402 C 65.520 42.238,127.440 42.130,201.800 42.162 L 337.000 42.220 340.200 43.117 M259.906 105.998 C 259.304 106.179,258.067 106.965,257.158 107.743 C 252.561 111.678,252.815 108.447,252.807 163.071 C 252.801 204.779,252.736 209.607,252.171 210.171 C 251.336 211.007,232.659 211.127,232.124 210.300 C 231.946 210.025,231.708 192.970,231.596 172.400 C 231.366 130.395,231.521 132.449,228.389 129.722 C 225.614 127.306,219.941 125.837,218.275 127.104 C 218.014 127.303,217.170 127.715,216.400 128.018 C 214.176 128.896,212.610 130.732,211.660 133.578 C 210.805 136.141,210.800 136.364,210.800 172.816 C 210.800 207.824,210.767 209.506,210.069 210.138 C 208.762 211.320,190.668 211.118,189.823 209.911 C 189.275 209.129,189.200 205.927,189.200 183.237 C 189.200 160.401,189.124 157.181,188.534 155.079 C 186.027 146.145,173.512 145.367,169.734 153.911 L 168.800 156.023 168.800 182.522 C 168.800 205.859,168.726 209.128,168.177 209.911 C 167.303 211.159,148.994 211.319,147.880 210.088 C 147.315 209.464,147.220 207.425,147.107 193.588 C 146.964 175.994,146.804 174.795,144.287 172.383 C 141.506 169.720,136.003 167.878,134.580 169.136 C 134.371 169.321,133.570 169.716,132.800 170.014 C 126.835 172.324,126.623 173.091,126.479 192.792 C 126.334 212.694,126.979 210.800,120.346 210.800 C 116.600 210.800,115.077 210.977,113.022 211.652 C 104.036 214.602,102.906 225.995,111.133 230.695 L 113.400 231.990 200.140 231.995 L 286.879 232.000 289.213 230.559 C 297.173 225.646,295.931 214.449,287.116 211.652 C 285.002 210.981,283.422 210.800,279.665 210.800 C 275.719 210.800,274.803 210.686,274.349 210.139 C 273.893 209.589,273.766 201.288,273.600 161.039 L 273.400 112.600 272.399 110.951 C 269.769 106.619,264.621 104.578,259.906 105.998 M269.102 108.356 C 270.618 109.634,271.432 110.723,272.092 112.356 L 273.000 114.600 273.106 162.381 L 273.213 210.162 274.076 211.081 C 274.886 211.943,275.245 212.000,279.850 212.000 C 284.988 212.000,288.585 212.527,289.600 213.430 C 293.181 216.612,293.697 217.733,293.639 222.200 C 293.611 224.374,293.422 225.224,292.796 226.000 C 292.352 226.550,291.798 227.371,291.564 227.825 C 291.331 228.279,290.478 228.990,289.670 229.405 C 288.861 229.821,287.866 230.439,287.458 230.780 C 286.793 231.336,277.733 231.400,200.058 231.400 L 113.400 231.400 111.840 230.400 C 105.621 226.415,104.359 219.658,108.972 215.046 C 111.620 212.398,113.079 212.000,120.150 212.000 C 127.386 212.000,126.738 213.676,126.882 194.593 C 127.005 178.310,127.662 172.800,129.479 172.800 C 129.748 172.800,130.380 172.363,130.884 171.829 C 133.405 169.156,140.018 169.340,143.004 172.167 C 145.928 174.935,145.789 173.980,145.902 191.982 C 146.016 210.004,145.980 209.578,147.501 210.988 L 148.592 212.000 157.722 212.000 C 171.033 212.000,169.600 215.496,169.600 183.023 C 169.600 154.807,169.652 154.114,171.938 151.666 C 172.589 150.970,173.317 150.400,173.557 150.400 C 173.797 150.400,174.218 150.040,174.493 149.600 C 174.936 148.890,175.426 148.800,178.834 148.800 C 182.168 148.800,182.772 148.906,183.400 149.600 C 183.798 150.040,184.321 150.400,184.562 150.400 C 185.188 150.400,187.187 153.012,187.716 154.521 C 188.021 155.391,188.234 164.473,188.382 182.935 L 188.600 210.070 189.722 211.035 C 190.839 211.995,190.891 212.000,200.147 212.000 L 209.450 212.000 210.508 210.897 L 211.565 209.793 211.696 172.797 C 211.836 133.197,211.909 131.700,213.759 130.719 C 214.221 130.474,214.825 129.956,215.100 129.568 C 215.376 129.181,216.186 128.738,216.900 128.585 C 217.615 128.433,218.380 128.173,218.600 128.007 C 220.094 126.887,225.678 128.074,227.501 129.900 C 227.996 130.395,228.550 130.800,228.734 130.800 C 230.428 130.800,230.591 134.150,230.800 173.135 L 231.000 210.471 231.944 211.235 C 232.814 211.940,233.630 212.000,242.275 212.000 L 251.662 212.000 252.831 210.831 L 254.000 209.662 254.000 162.704 C 254.000 109.833,253.905 111.702,256.738 109.095 C 259.718 106.353,259.505 106.431,263.810 106.528 C 266.979 106.599,267.047 106.622,269.102 108.356 " stroke="none" fill="#b1d1c4" fill-rule="evenodd"></path><path id="path3" d="M64.397 42.787 C 63.185 42.945,61.565 43.267,60.797 43.503 C 60.029 43.739,58.770 44.039,58.000 44.168 C 57.230 44.298,56.109 44.661,55.508 44.974 C 54.908 45.288,52.848 46.218,50.931 47.041 C 44.711 49.713,36.868 55.653,32.687 60.860 C 30.620 63.434,28.228 66.774,27.858 67.600 C 27.711 67.930,26.957 69.370,26.184 70.800 C 24.102 74.649,22.846 77.961,22.212 81.273 C 21.901 82.896,21.412 84.758,21.124 85.412 C 20.466 86.905,20.131 246.926,20.779 249.968 C 22.477 257.938,24.257 263.871,25.348 265.198 C 25.620 265.529,26.532 267.150,27.374 268.800 C 28.217 270.450,29.017 271.890,29.154 272.000 C 29.290 272.110,30.201 273.280,31.178 274.600 C 35.968 281.074,45.212 288.209,52.402 290.981 C 54.491 291.787,56.802 292.722,57.538 293.060 C 62.159 295.180,62.318 295.185,141.200 295.197 C 181.350 295.204,214.913 295.327,215.785 295.470 C 217.241 295.711,219.852 298.222,247.985 326.434 C 269.560 348.069,278.954 357.233,279.800 357.467 C 284.838 358.863,290.416 357.551,292.554 354.467 C 294.584 351.537,294.560 351.882,294.703 323.515 L 294.837 296.829 295.872 296.015 C 296.878 295.224,297.410 295.200,314.261 295.200 C 332.965 295.200,339.221 294.686,343.287 292.813 C 344.229 292.380,346.440 291.469,348.200 290.790 C 349.960 290.111,352.030 289.145,352.800 288.643 C 358.435 284.972,360.185 283.671,363.073 281.005 C 370.000 274.613,376.658 263.585,377.808 256.600 C 377.953 255.720,378.460 253.650,378.936 252.000 L 379.800 249.000 379.800 168.600 C 379.800 93.934,379.751 88.057,379.119 86.200 C 378.744 85.100,378.242 83.076,378.002 81.702 C 377.567 79.211,376.015 74.519,375.123 73.000 C 374.865 72.560,373.946 70.855,373.082 69.210 C 371.093 65.427,367.855 61.116,364.421 57.679 C 359.221 52.474,352.727 48.150,347.156 46.185 C 346.228 45.857,345.266 45.421,345.018 45.215 C 344.770 45.009,342.775 44.337,340.584 43.720 L 336.600 42.600 201.600 42.550 C 127.350 42.522,65.609 42.629,64.397 42.787 M333.027 43.388 C 334.102 43.711,336.785 44.187,338.990 44.445 C 341.828 44.776,343.239 45.129,343.819 45.650 C 344.270 46.056,345.260 46.505,346.019 46.648 C 346.779 46.790,347.760 47.224,348.200 47.611 C 348.640 47.997,349.630 48.446,350.400 48.609 C 351.170 48.771,352.309 49.330,352.931 49.852 C 353.553 50.373,354.311 50.800,354.617 50.800 C 354.922 50.800,355.363 51.158,355.597 51.595 C 355.832 52.033,356.451 52.498,356.974 52.629 C 357.496 52.760,358.333 53.302,358.832 53.834 C 359.331 54.365,360.068 54.800,360.470 54.800 C 360.871 54.800,361.200 55.001,361.200 55.247 C 361.200 55.829,364.171 58.800,364.753 58.800 C 364.999 58.800,365.200 58.980,365.200 59.200 C 365.200 59.420,365.522 59.922,365.915 60.315 C 366.308 60.708,367.042 61.698,367.547 62.515 C 368.052 63.332,368.609 64.000,368.784 64.000 C 368.959 64.000,369.327 64.540,369.600 65.200 C 369.873 65.860,370.253 66.400,370.443 66.400 C 370.634 66.400,371.069 67.068,371.410 67.885 C 371.751 68.702,372.272 69.647,372.568 69.985 C 372.864 70.323,373.237 71.050,373.399 71.600 C 373.560 72.150,374.029 72.969,374.441 73.421 C 374.853 73.872,375.368 75.177,375.585 76.321 C 375.802 77.464,376.241 78.906,376.561 79.525 C 376.881 80.144,377.270 81.809,377.424 83.225 C 377.578 84.641,378.041 86.700,378.452 87.800 C 379.492 90.581,379.637 247.194,378.602 249.196 C 378.273 249.832,377.818 251.669,377.591 253.276 C 377.364 254.884,376.845 257.100,376.437 258.200 C 376.029 259.300,375.568 260.965,375.413 261.900 C 375.257 262.835,374.955 263.600,374.742 263.600 C 374.529 263.600,374.000 264.403,373.566 265.383 C 373.132 266.364,372.607 267.272,372.400 267.400 C 372.192 267.529,371.805 268.357,371.541 269.240 C 371.276 270.124,370.731 271.023,370.330 271.238 C 369.928 271.452,369.600 271.849,369.600 272.118 C 369.600 273.119,361.257 281.936,358.800 283.531 C 358.250 283.889,357.656 284.410,357.480 284.690 C 357.304 284.971,356.924 285.200,356.635 285.200 C 356.346 285.200,355.431 285.740,354.600 286.400 C 353.769 287.060,352.873 287.600,352.607 287.600 C 352.341 287.600,351.810 287.947,351.426 288.371 C 351.043 288.795,350.030 289.260,349.176 289.404 C 348.322 289.548,347.185 290.011,346.649 290.433 C 346.113 290.855,345.328 291.200,344.905 291.200 C 344.482 291.200,343.250 291.651,342.168 292.202 C 339.293 293.667,334.221 293.993,314.260 293.997 C 296.446 294.000,295.158 294.112,294.094 295.749 C 293.932 295.997,293.710 308.858,293.600 324.328 C 293.411 350.913,293.360 352.479,292.678 352.861 C 292.281 353.083,291.789 353.703,291.585 354.239 C 291.381 354.776,290.799 355.372,290.291 355.566 C 289.783 355.759,289.127 356.205,288.835 356.558 C 287.886 357.701,281.590 357.456,279.600 356.200 C 278.729 355.650,277.832 355.200,277.608 355.200 C 277.384 355.200,277.200 355.020,277.200 354.800 C 277.200 354.266,253.751 330.800,253.217 330.800 C 252.988 330.800,252.800 330.626,252.800 330.413 C 252.800 329.884,243.748 320.800,243.221 320.800 C 242.990 320.800,242.800 320.608,242.800 320.373 C 242.800 319.601,218.247 295.408,216.736 294.691 C 215.372 294.044,210.607 294.000,141.940 293.997 C 68.739 293.993,60.198 293.853,58.822 292.630 C 58.480 292.326,57.270 291.805,56.134 291.471 C 54.998 291.137,53.648 290.593,53.134 290.261 C 52.620 289.930,51.480 289.528,50.600 289.369 C 49.720 289.209,48.765 288.746,48.477 288.339 C 48.190 287.933,47.723 287.600,47.440 287.600 C 47.156 287.600,46.401 287.149,45.762 286.598 C 45.123 286.046,44.267 285.488,43.861 285.358 C 43.454 285.228,42.824 284.867,42.461 284.557 C 37.005 279.900,33.392 276.305,32.554 274.700 C 32.238 274.095,31.714 273.600,31.390 273.600 C 31.065 273.600,30.800 273.321,30.800 272.981 C 30.800 272.640,30.374 271.965,29.852 271.481 C 29.331 270.996,28.781 270.034,28.630 269.341 C 28.478 268.649,28.005 267.766,27.577 267.379 C 27.150 266.993,26.800 266.336,26.800 265.920 C 26.800 265.504,26.373 264.736,25.850 264.214 C 25.255 263.618,24.793 262.547,24.612 261.341 C 24.454 260.284,24.002 258.785,23.609 258.009 C 23.216 257.234,22.765 255.298,22.607 253.706 C 22.449 252.115,21.978 250.141,21.560 249.322 C 20.460 247.163,20.357 90.610,21.455 88.410 C 21.815 87.688,22.291 85.726,22.512 84.049 C 22.733 82.372,23.241 80.280,23.640 79.400 C 24.039 78.520,24.491 76.990,24.643 76.000 C 24.796 75.010,25.343 73.691,25.860 73.069 C 26.377 72.447,26.800 71.682,26.800 71.369 C 26.800 71.056,27.155 70.445,27.590 70.010 C 28.024 69.576,28.503 68.721,28.654 68.110 C 28.806 67.500,29.260 66.765,29.665 66.477 C 30.069 66.190,30.400 65.709,30.400 65.408 C 30.400 65.107,30.940 64.322,31.600 63.662 C 32.260 63.002,32.800 62.300,32.800 62.103 C 32.800 61.906,33.250 61.353,33.800 60.875 C 34.350 60.397,34.800 59.734,34.800 59.403 C 34.800 59.071,35.066 58.800,35.391 58.800 C 35.716 58.800,36.276 58.350,36.637 57.800 C 36.997 57.250,37.538 56.800,37.838 56.800 C 38.139 56.800,38.498 56.350,38.636 55.800 C 38.784 55.211,39.174 54.800,39.585 54.800 C 39.969 54.800,40.721 54.395,41.257 53.900 C 41.792 53.405,42.723 52.777,43.326 52.503 C 43.929 52.230,44.527 51.735,44.654 51.403 C 44.781 51.072,45.183 50.800,45.547 50.800 C 45.911 50.800,46.664 50.377,47.222 49.860 C 47.780 49.343,48.878 48.799,49.663 48.652 C 50.448 48.505,51.393 48.050,51.763 47.640 C 52.134 47.231,53.151 46.782,54.024 46.643 C 54.897 46.503,55.952 46.048,56.368 45.632 C 56.912 45.088,57.998 44.793,60.227 44.585 C 61.933 44.425,64.605 43.972,66.164 43.579 C 70.144 42.576,329.710 42.390,333.027 43.388 M260.176 104.587 C 259.749 104.910,259.113 105.180,258.761 105.187 C 258.410 105.194,257.690 105.580,257.161 106.045 C 256.633 106.510,255.615 107.342,254.900 107.893 C 254.185 108.444,253.600 109.106,253.600 109.363 C 253.600 109.620,253.195 110.544,252.700 111.415 L 251.800 113.000 251.600 161.200 L 251.400 209.400 242.100 209.507 L 232.800 209.615 232.790 172.507 C 232.781 135.766,232.678 132.685,231.422 131.767 C 231.080 131.516,230.800 131.080,230.800 130.796 C 230.800 130.062,228.503 127.929,226.359 126.672 C 224.193 125.403,218.648 125.122,216.800 126.189 C 216.250 126.506,215.364 126.961,214.831 127.199 C 213.511 127.790,212.000 129.440,210.801 131.600 L 209.802 133.400 209.601 171.400 L 209.400 209.400 200.121 209.507 L 190.841 209.615 190.717 182.507 C 190.621 161.279,190.481 155.183,190.075 154.400 C 188.503 151.370,188.045 150.734,186.400 149.297 C 181.068 144.643,173.492 145.826,169.085 152.000 L 167.800 153.800 167.600 181.600 L 167.400 209.400 158.000 209.400 L 148.600 209.400 148.400 192.742 C 148.218 177.607,148.136 176.012,147.500 175.310 C 147.115 174.885,146.800 174.146,146.800 173.668 C 146.800 172.592,143.876 169.682,142.446 169.333 C 141.870 169.193,140.971 168.745,140.446 168.339 C 137.301 165.903,129.840 168.685,126.664 173.479 L 125.400 175.387 125.280 192.291 L 125.160 209.195 124.280 209.389 C 123.796 209.496,121.033 209.632,118.141 209.691 C 113.983 209.777,112.726 209.935,112.141 210.446 C 111.733 210.802,110.945 211.200,110.388 211.332 C 108.892 211.685,105.721 215.032,105.434 216.558 C 105.301 217.266,104.843 218.531,104.416 219.369 C 103.593 220.983,103.673 222.877,104.611 224.000 C 104.887 224.330,105.235 225.343,105.383 226.251 C 105.548 227.258,106.034 228.233,106.627 228.749 C 107.162 229.214,107.600 229.758,107.600 229.958 C 107.600 230.158,108.140 230.510,108.800 230.740 C 109.460 230.970,110.000 231.326,110.000 231.531 C 110.000 232.780,112.258 232.809,200.735 232.705 L 289.271 232.600 289.999 231.700 C 290.400 231.205,290.934 230.800,291.185 230.800 C 292.030 230.800,294.395 227.812,294.660 226.408 C 294.805 225.643,295.255 224.473,295.660 223.808 C 296.600 222.267,296.592 221.097,295.627 219.044 C 295.202 218.140,294.750 216.908,294.622 216.307 C 293.791 212.414,288.285 209.602,281.478 209.595 C 278.795 209.592,276.198 209.481,275.706 209.350 L 274.812 209.110 274.706 160.231 L 274.600 111.353 273.496 109.977 C 272.889 109.219,272.234 108.445,272.040 108.257 C 269.625 105.907,268.711 105.200,268.090 105.200 C 267.685 105.200,267.004 104.936,266.576 104.613 C 265.530 103.821,261.212 103.804,260.176 104.587 M266.840 105.659 C 268.900 106.355,272.189 109.339,273.151 111.384 L 274.000 113.191 274.000 161.134 C 274.000 206.288,274.041 209.112,274.700 209.701 C 275.239 210.182,276.642 210.364,280.800 210.489 C 285.303 210.626,286.532 210.802,288.200 211.550 C 296.847 215.428,297.315 226.443,289.035 231.180 L 286.893 232.405 199.684 232.303 L 112.475 232.200 110.170 230.600 C 105.830 227.588,104.237 223.335,105.666 218.572 C 107.421 212.724,111.555 210.400,120.204 210.400 C 126.593 210.400,125.999 212.188,126.004 192.926 L 126.008 177.000 126.987 174.896 C 131.147 165.961,143.902 166.765,146.763 176.142 C 147.549 178.716,147.600 179.805,147.600 193.911 C 147.600 207.332,147.671 209.015,148.262 209.669 C 149.111 210.607,166.764 210.807,167.528 209.887 C 167.816 209.540,167.996 200.743,168.085 182.587 C 168.229 153.412,168.125 154.763,170.481 151.575 C 175.278 145.087,185.886 146.715,188.886 154.400 C 189.728 156.555,189.749 157.139,189.903 182.996 C 190.008 200.552,190.201 209.561,190.480 209.896 C 191.188 210.749,208.710 210.605,209.669 209.738 C 210.367 209.106,210.400 207.423,210.400 172.401 C 210.400 136.619,210.420 135.668,211.210 133.372 C 214.445 123.968,228.012 124.047,231.168 133.487 C 231.986 135.934,232.000 136.572,232.000 172.707 C 232.000 200.744,232.114 209.554,232.480 209.920 C 233.161 210.601,251.239 210.601,251.920 209.920 C 252.288 209.552,252.400 198.489,252.400 162.562 C 252.400 116.140,252.408 115.658,253.237 112.942 C 255.036 107.046,261.191 103.751,266.840 105.659 " stroke="none" fill="#75ad9d" fill-rule="evenodd"></path><path id="path4" d="M64.200 42.402 C 61.552 42.731,55.653 44.261,55.009 44.787 C 54.784 44.970,53.154 45.677,51.386 46.356 C 41.985 49.970,30.260 60.900,26.016 70.006 C 25.556 70.993,24.931 72.250,24.628 72.800 C 23.405 75.014,22.363 77.955,21.793 80.800 C 21.462 82.450,20.927 84.970,20.604 86.400 C 19.933 89.370,19.717 247.121,20.379 250.200 C 22.885 261.846,25.187 267.377,30.366 274.200 C 36.275 281.985,49.358 292.000,53.619 292.000 C 53.896 292.000,55.047 292.437,56.177 292.972 C 58.409 294.028,63.435 295.077,68.800 295.607 C 70.670 295.792,104.777 295.956,144.594 295.972 L 216.988 296.000 247.794 326.775 C 278.178 357.128,279.535 358.381,281.468 357.882 C 281.909 357.768,281.714 357.674,280.978 357.646 C 279.036 357.573,278.564 357.127,247.212 325.665 C 219.750 298.108,217.259 295.714,215.792 295.472 C 214.917 295.327,181.350 295.204,141.200 295.197 C 62.318 295.185,62.159 295.180,57.538 293.060 C 56.802 292.722,54.491 291.787,52.402 290.981 C 45.212 288.209,35.968 281.074,31.178 274.600 C 30.201 273.280,29.290 272.110,29.154 272.000 C 29.017 271.890,28.217 270.450,27.374 268.800 C 26.532 267.150,25.620 265.529,25.348 265.198 C 24.257 263.871,22.477 257.938,20.779 249.968 C 20.131 246.926,20.466 86.905,21.124 85.412 C 21.412 84.758,21.901 82.896,22.212 81.273 C 22.846 77.961,24.102 74.649,26.184 70.800 C 26.957 69.370,27.711 67.930,27.858 67.600 C 30.826 60.961,42.379 50.695,51.023 47.015 C 52.991 46.178,54.780 45.355,55.000 45.188 C 55.398 44.884,56.045 44.696,61.400 43.319 C 64.069 42.634,70.586 42.600,200.400 42.600 L 336.600 42.600 340.584 43.720 C 342.775 44.337,344.770 45.009,345.018 45.215 C 345.266 45.421,346.228 45.857,347.156 46.185 C 352.727 48.150,359.221 52.474,364.421 57.679 C 367.911 61.172,371.105 65.447,373.165 69.381 C 374.075 71.119,374.971 72.735,375.155 72.971 C 375.659 73.616,378.000 80.617,378.000 81.480 C 378.000 81.894,378.297 83.305,378.661 84.616 C 379.024 85.927,379.449 87.900,379.604 89.000 L 379.887 91.000 379.926 89.000 C 379.947 87.900,379.705 86.280,379.388 85.400 C 379.071 84.520,378.622 82.720,378.389 81.400 C 377.915 78.708,376.119 73.317,375.390 72.400 C 375.128 72.070,374.333 70.630,373.623 69.200 C 370.895 63.709,363.045 54.907,357.776 51.434 C 356.469 50.572,354.770 49.456,354.000 48.953 C 353.230 48.451,351.520 47.569,350.200 46.995 C 348.880 46.420,346.810 45.514,345.600 44.982 C 344.390 44.449,341.960 43.610,340.200 43.117 L 337.000 42.220 201.800 42.162 C 127.440 42.130,65.520 42.238,64.200 42.402 M380.196 169.000 C 380.196 211.020,380.243 228.269,380.300 207.332 C 380.357 186.394,380.357 152.014,380.300 130.932 C 380.243 109.849,380.196 126.980,380.196 169.000 M259.784 105.626 C 259.115 105.820,257.557 106.929,256.321 108.090 C 252.116 112.038,252.400 108.086,252.400 162.562 C 252.400 198.489,252.288 209.552,251.920 209.920 C 251.239 210.601,233.161 210.601,232.480 209.920 C 232.114 209.554,232.000 200.744,232.000 172.707 C 232.000 136.572,231.986 135.934,231.168 133.487 C 228.012 124.047,214.445 123.968,211.210 133.372 C 210.420 135.668,210.400 136.619,210.400 172.401 C 210.400 207.423,210.367 209.106,209.669 209.738 C 208.710 210.605,191.188 210.749,190.480 209.896 C 190.201 209.561,190.008 200.552,189.903 182.996 C 189.749 157.139,189.728 156.555,188.886 154.400 C 185.886 146.715,175.278 145.087,170.481 151.575 C 168.125 154.763,168.229 153.412,168.085 182.587 C 167.996 200.743,167.816 209.540,167.528 209.887 C 166.764 210.807,149.111 210.607,148.262 209.669 C 147.671 209.015,147.600 207.332,147.600 193.911 C 147.600 179.805,147.549 178.716,146.763 176.142 C 143.902 166.765,131.147 165.961,126.987 174.896 L 126.008 177.000 126.004 192.926 C 125.999 212.188,126.593 210.400,120.204 210.400 C 109.936 210.400,103.712 215.646,105.277 222.981 C 105.803 225.449,106.063 225.277,105.756 222.665 C 104.870 215.125,110.188 210.800,120.346 210.800 C 126.979 210.800,126.334 212.694,126.479 192.792 C 126.623 173.091,126.835 172.324,132.800 170.014 C 133.570 169.716,134.371 169.321,134.580 169.136 C 136.003 167.878,141.506 169.720,144.287 172.383 C 146.804 174.795,146.964 175.994,147.107 193.588 C 147.220 207.425,147.315 209.464,147.880 210.088 C 148.994 211.319,167.303 211.159,168.177 209.911 C 168.726 209.128,168.800 205.859,168.800 182.522 L 168.800 156.023 169.734 153.911 C 173.512 145.367,186.027 146.145,188.534 155.079 C 189.124 157.181,189.200 160.401,189.200 183.237 C 189.200 205.927,189.275 209.129,189.823 209.911 C 190.708 211.176,209.008 211.317,210.138 210.069 C 210.744 209.399,210.800 206.233,210.800 172.746 C 210.800 136.365,210.805 136.141,211.660 133.578 C 212.610 130.732,214.176 128.896,216.400 128.018 C 217.170 127.715,218.014 127.303,218.275 127.104 C 219.941 125.837,225.614 127.306,228.389 129.722 C 231.521 132.449,231.366 130.395,231.596 172.400 C 231.708 192.970,231.946 210.025,232.124 210.300 C 232.659 211.127,251.336 211.007,252.171 210.171 C 252.736 209.607,252.801 204.779,252.807 163.071 C 252.815 108.462,252.563 111.677,257.146 107.753 C 261.770 103.795,268.972 105.305,272.399 110.951 L 273.400 112.600 273.600 161.039 C 273.766 201.288,273.893 209.589,274.349 210.139 C 274.803 210.686,275.719 210.800,279.665 210.800 C 283.422 210.800,285.002 210.981,287.116 211.652 C 295.931 214.449,297.173 225.646,289.213 230.559 L 286.879 232.000 200.140 231.995 L 113.400 231.990 111.149 230.695 C 108.836 229.364,107.098 227.616,106.430 225.948 C 106.194 225.358,106.041 225.242,106.025 225.641 C 105.980 226.799,107.788 228.972,110.151 230.600 L 112.475 232.200 199.684 232.303 L 286.893 232.405 289.035 231.180 C 297.315 226.443,296.847 215.428,288.200 211.550 C 286.532 210.802,285.303 210.626,280.800 210.489 C 276.642 210.364,275.239 210.182,274.700 209.701 C 274.041 209.112,274.000 206.288,274.000 161.134 L 274.000 113.191 273.151 111.384 C 270.936 106.672,264.992 104.111,259.784 105.626 M379.670 247.836 C 379.631 248.736,379.332 250.356,379.004 251.436 C 378.676 252.516,378.214 254.480,377.977 255.800 C 376.539 263.803,370.325 274.314,363.073 281.005 C 360.185 283.671,358.435 284.972,352.800 288.643 C 352.030 289.145,349.960 290.111,348.200 290.790 C 346.440 291.469,344.229 292.380,343.287 292.813 C 339.221 294.686,332.965 295.200,314.261 295.200 C 297.410 295.200,296.878 295.224,295.872 296.015 L 294.837 296.829 294.703 323.515 C 294.606 342.773,294.436 350.580,294.094 351.565 C 293.022 354.643,290.707 357.029,288.208 357.628 C 287.229 357.863,287.174 357.926,287.920 357.959 C 290.494 358.074,293.597 354.818,294.557 350.996 C 295.115 348.776,295.200 345.015,295.200 322.685 L 295.200 296.935 296.100 296.485 C 296.712 296.178,302.765 295.982,315.000 295.870 C 334.951 295.688,338.090 295.358,344.400 292.780 C 345.610 292.285,347.770 291.419,349.200 290.855 C 350.630 290.291,352.250 289.533,352.800 289.169 C 353.350 288.805,354.876 287.817,356.191 286.972 C 358.899 285.233,359.194 285.005,362.525 282.084 C 364.724 280.155,367.497 277.150,369.304 274.739 C 369.690 274.223,370.449 273.241,370.990 272.558 C 371.531 271.875,372.638 269.985,373.451 268.358 C 374.264 266.731,375.147 265.130,375.414 264.800 C 375.681 264.470,376.125 263.480,376.402 262.600 C 376.678 261.720,377.065 260.796,377.263 260.547 C 377.460 260.297,377.884 258.677,378.205 256.947 C 378.527 255.216,379.074 252.873,379.420 251.739 C 379.766 250.606,379.980 248.896,379.895 247.939 L 379.740 246.200 379.670 247.836 " stroke="none" fill="#a0c8bc" fill-rule="evenodd"></path></g></svg>